<svg width="228" height="105" xmlns="http://www.w3.org/2000/svg" xmlns:xlink="http://www.w3.org/1999/xlink" xml:space="preserve" overflow="hidden"><g transform="translate(-354 -380)"><path d="M204.041 71.4384C201.842 71.4384 199.968 71.0071 198.418 70.1433 196.868 69.28 195.683 68.0305 194.861 66.3952 194.04 64.7468 193.63 62.7582 193.63 60.4294 193.63 58.0226 194.067 55.9947 194.941 54.3463 195.815 52.6848 197.047 51.4287 198.636 50.5783 200.226 49.728 202.087 49.3028 204.219 49.3028 206.285 49.3028 208.02 49.6887 209.425 50.4605 210.842 51.2324 211.915 52.3707 212.643 53.8751 213.372 55.3799 213.736 57.2306 213.736 59.4289 213.736 59.7035 213.722 60.0243 213.696 60.3901 213.683 60.7434 213.663 61.1491 213.637 61.6072L199.689 61.6072C199.835 63.3861 200.272 64.688 201.001 65.512 201.729 66.3234 202.749 66.729 204.06 66.729 205.147 66.729 205.967 66.4932 206.524 66.0225 207.093 65.5513 207.431 64.9302 207.537 64.1581L213.458 64.1581C213.339 65.6367 212.882 66.9251 212.087 68.0242 211.306 69.1102 210.233 69.9535 208.868 70.5558 207.504 71.1444 205.894 71.4384 204.041 71.4384ZM202.212 58.173 207.796 58.173C207.743 56.7993 207.405 55.7719 206.782 55.0916 206.173 54.4113 205.232 54.0716 203.961 54.0716 202.464 54.0716 201.372 54.601 200.682 55.6608 199.994 56.7075 199.643 58.1992 199.629 60.1354 199.736 59.3895 199.994 58.879 200.405 58.6044 200.815 58.3166 201.418 58.173 202.212 58.173Z" transform="matrix(1 0 0 1.00164 354 380)"/><path d="M182.104 71.4777C180.236 71.4777 178.627 71.2099 177.276 70.6732 175.938 70.137 174.899 69.3256 174.157 68.2401 173.415 67.141 173.004 65.7479 172.925 64.0601L178.945 64.0601C179.064 65.1068 179.402 65.8784 179.959 66.3758 180.528 66.8727 181.289 67.1216 182.243 67.1216 182.72 67.1216 183.177 67.0692 183.614 66.9644 184.051 66.8465 184.409 66.6504 184.687 66.3758 184.965 66.088 185.104 65.6954 185.104 65.198 185.104 64.7929 184.998 64.4658 184.786 64.2169 184.588 63.9553 184.29 63.7394 183.892 63.5695 183.508 63.3861 183.038 63.2226 182.482 63.0789 181.925 62.9217 181.296 62.7388 180.594 62.5291 179.349 62.1633 178.183 61.7183 177.097 61.1952 176.024 60.6716 175.157 59.9719 174.494 59.095 173.832 58.2186 173.501 57.0676 173.501 55.6414 173.501 53.5087 174.289 51.9259 175.866 50.8923 177.455 49.8588 179.535 49.342 182.104 49.342 183.614 49.342 184.972 49.5448 186.177 49.9504 187.382 50.3559 188.376 51.0755 189.157 52.109 189.952 53.1423 190.462 54.601 190.687 56.4853L184.707 56.446C184.588 55.6084 184.382 54.9873 184.091 54.5816 183.799 54.1628 183.468 53.8882 183.098 53.7577 182.727 53.6135 182.342 53.5417 181.945 53.5417 181.495 53.5417 181.084 53.6135 180.713 53.7577 180.356 53.9013 180.071 54.1104 179.859 54.3856 179.647 54.6602 179.541 55.0067 179.541 55.4255 179.541 55.9224 179.7 56.348 180.018 56.7012 180.336 57.0545 180.819 57.3685 181.468 57.6431 182.117 57.9047 182.945 58.173 183.952 58.4477 184.614 58.6175 185.356 58.8271 186.177 59.0756 187.011 59.324 187.806 59.671 188.561 60.1155 189.33 60.5605 189.959 61.1622 190.449 61.9211 190.952 62.6801 191.203 63.6613 191.203 64.8647 191.203 66.9581 190.389 68.5866 188.76 69.7512 187.131 70.9022 184.912 71.4777 182.104 71.4777Z" transform="matrix(1 0 0 1.00164 354 380)"/><path d="M150.377 71.1444 150.377 49.7149 155.9 49.7149 156.417 57.7998 156.178 56.1713C156.337 54.9936 156.649 53.8819 157.112 52.8352 157.576 51.7754 158.264 50.9185 159.179 50.2644 160.106 49.6102 161.331 49.2832 162.854 49.2832 164.828 49.2832 166.411 49.9177 167.603 51.1867 168.808 52.4426 169.411 54.3657 169.411 56.956L169.411 71.1444 163.232 71.1444 163.232 59.2323C163.232 57.8722 163.112 56.8386 162.874 56.132 162.636 55.4124 162.298 54.9218 161.861 54.6602 161.423 54.3987 160.907 54.2677 160.311 54.2677 159.463 54.2677 158.715 54.536 158.066 55.0722 157.417 55.5953 156.92 56.2169 156.576 56.9366L156.576 71.1444 150.377 71.1444Z" transform="matrix(1 0 0 1.00164 354 380)"/><path d="M136.908 71.4384C134.71 71.4384 132.835 71.0071 131.286 70.1433 129.736 69.28 128.551 68.0305 127.729 66.3952 126.908 64.7468 126.498 62.7582 126.498 60.4294 126.498 58.0226 126.935 55.9947 127.809 54.3463 128.683 52.6848 129.915 51.4287 131.504 50.5783 133.094 49.728 134.955 49.3028 137.087 49.3028 139.153 49.3028 140.889 49.6887 142.292 50.4605 143.71 51.2324 144.783 52.3707 145.511 53.8751 146.24 55.3799 146.604 57.2306 146.604 59.4289 146.604 59.7035 146.591 60.0243 146.564 60.3901 146.551 60.7434 146.531 61.1491 146.504 61.6072L132.557 61.6072C132.703 63.3861 133.14 64.688 133.868 65.512 134.597 66.3234 135.617 66.729 136.928 66.729 138.014 66.729 138.836 66.4932 139.392 66.0225 139.962 65.5513 140.299 64.9302 140.405 64.1581L146.326 64.1581C146.207 65.6367 145.75 66.9251 144.955 68.0242 144.174 69.1102 143.101 69.9535 141.736 70.5558 140.372 71.1444 138.763 71.4384 136.908 71.4384ZM135.08 58.173 140.663 58.173C140.61 56.7993 140.272 55.7719 139.65 55.0916 139.041 54.4113 138.1 54.0716 136.829 54.0716 135.332 54.0716 134.24 54.601 133.551 55.6608 132.862 56.7075 132.511 58.1992 132.498 60.1354 132.604 59.3895 132.862 58.879 133.273 58.6044 133.683 58.3166 134.286 58.173 135.08 58.173Z" transform="matrix(1 0 0 1.00164 354 380)"/><path d="M114.972 71.4777C113.104 71.4777 111.495 71.2099 110.144 70.6732 108.806 70.137 107.766 69.3256 107.025 68.2401 106.283 67.141 105.872 65.7479 105.793 64.0601L111.813 64.0601C111.932 65.1068 112.27 65.8784 112.826 66.3758 113.396 66.8727 114.157 67.1216 115.111 67.1216 115.588 67.1216 116.045 67.0692 116.482 66.9644 116.919 66.8465 117.276 66.6504 117.555 66.3758 117.833 66.088 117.972 65.6954 117.972 65.198 117.972 64.7929 117.866 64.4658 117.654 64.2169 117.456 63.9553 117.157 63.7394 116.76 63.5695 116.376 63.3861 115.906 63.2226 115.35 63.0789 114.793 62.9217 114.164 62.7388 113.462 62.5291 112.217 62.1633 111.051 61.7183 109.965 61.1952 108.892 60.6716 108.025 59.9719 107.362 59.095 106.7 58.2186 106.369 57.0676 106.369 55.6414 106.369 53.5087 107.157 51.9259 108.733 50.8923 110.323 49.8588 112.402 49.342 114.972 49.342 116.482 49.342 117.839 49.5448 119.045 49.9504 120.25 50.3559 121.244 51.0755 122.025 52.109 122.82 53.1423 123.33 54.601 123.555 56.4853L117.575 56.446C117.456 55.6084 117.25 54.9873 116.959 54.5816 116.667 54.1628 116.336 53.8882 115.966 53.7577 115.594 53.6135 115.21 53.5417 114.813 53.5417 114.363 53.5417 113.952 53.6135 113.581 53.7577 113.224 53.9013 112.939 54.1104 112.727 54.3856 112.515 54.6602 112.409 55.0067 112.409 55.4255 112.409 55.9224 112.568 56.348 112.886 56.7012 113.204 57.0545 113.687 57.3685 114.336 57.6431 114.985 57.9047 115.813 58.173 116.82 58.4477 117.482 58.6175 118.223 58.8271 119.045 59.0756 119.879 59.324 120.674 59.671 121.429 60.1155 122.198 60.5605 122.826 61.1622 123.317 61.9211 123.82 62.6801 124.071 63.6613 124.071 64.8647 124.071 66.9581 123.257 68.5866 121.628 69.7512 119.999 70.9022 117.78 71.4777 114.972 71.4777Z" transform="matrix(1 0 0 1.00164 354 380)"/><path d="M90.1234 71.3797C88.8917 71.3797 87.7727 71.1507 86.7658 70.6931 85.7726 70.235 84.9842 69.5615 84.4014 68.6715 83.8191 67.782 83.5277 66.6897 83.5277 65.3946 83.5277 64.0994 83.7924 63.0334 84.3223 62.1958 84.8653 61.3587 85.6001 60.7046 86.5273 60.2334 87.4545 59.7491 88.5012 59.3895 89.6669 59.1542 90.4484 58.997 91.2493 58.8665 92.0706 58.7616 92.905 58.6568 93.6865 58.5719 94.4151 58.5064 95.1567 58.4409 95.7862 58.389 96.3025 58.3497L96.3025 57.761C96.3025 56.4004 96.0708 55.4454 95.6069 54.8956 95.1567 54.3463 94.3621 54.0716 93.2232 54.0716 92.4946 54.0716 91.8788 54.1697 91.3751 54.3657 90.885 54.5622 90.5144 54.9155 90.2628 55.4255 90.0244 55.936 89.9117 56.6619 89.9248 57.6038L84.0838 57.6038C83.925 55.7201 84.2227 54.1697 84.978 52.9531 85.7327 51.7231 86.8386 50.8139 88.2957 50.2252 89.7529 49.6233 91.4615 49.3225 93.4218 49.3225 94.5608 49.3225 95.6667 49.4468 96.7396 49.6953 97.8125 49.9308 98.7727 50.3429 99.6203 50.9316 100.468 51.5072 101.137 52.2987 101.627 53.3059 102.13 54.3133 102.382 55.589 102.382 57.1326L102.382 71.1444 96.2626 71.1444 96.3025 66.1404C96.064 67.5792 95.4681 68.8156 94.5146 69.8492 93.5738 70.8697 92.1104 71.3797 90.1234 71.3797ZM92.1702 67.3376C92.8191 67.3376 93.4349 67.2196 94.0178 66.9843 94.6137 66.7353 95.1169 66.402 95.5278 65.9832 95.9382 65.5513 96.1966 65.0738 96.3025 64.5507L96.3025 61.1753C95.7726 61.2539 95.2364 61.3388 94.6934 61.4305 94.1504 61.5223 93.6734 61.6203 93.263 61.7251 91.938 62.0129 91.0307 62.4117 90.5406 62.9217 90.0506 63.4191 89.8058 64.0732 89.8058 64.8841 89.8058 65.3946 89.8917 65.8328 90.0642 66.1991 90.2492 66.5655 90.5207 66.847 90.8787 67.043 91.2362 67.239 91.6665 67.3376 92.1702 67.3376Z" transform="matrix(1 0 0 1.00164 354 380)"/><path d="M69.9572 79.9557C67.8114 79.9819 65.9837 79.6611 64.4737 78.9939 62.9636 78.3398 61.8378 77.411 61.0961 76.2076 60.3676 75.0036 60.0961 73.6236 60.2811 72.0669L66.2814 72.0669C66.2683 72.6555 66.3674 73.1786 66.5797 73.6367 66.7914 74.1079 67.1756 74.4805 67.7317 74.7552 68.2884 75.0298 69.0698 75.1671 70.0762 75.1671 71.0034 75.1671 71.7188 75.0298 72.222 74.7552 72.7388 74.4936 73.1031 74.0948 73.3148 73.558 73.5266 73.0218 73.6325 72.3546 73.6325 71.5564L73.6325 65.5319C73.4474 66.6703 73.1031 67.6054 72.5994 68.3382 72.1093 69.0709 71.4673 69.6202 70.6721 69.9866 69.8775 70.3398 68.9304 70.5165 67.8313 70.5165 66.5199 70.5165 65.3542 70.2481 64.3343 69.7119 63.3279 69.1752 62.4668 68.4362 61.7518 67.4943 61.0495 66.5393 60.5133 65.4402 60.1422 64.1975 59.7847 62.9416 59.606 61.6004 59.606 60.1747 59.606 57.8591 59.9635 55.8967 60.6789 54.2876 61.4069 52.6649 62.4007 51.4353 63.6592 50.598 64.9302 49.7477 66.381 49.3225 68.01 49.3225 69.0562 49.3225 69.9572 49.4729 70.712 49.7738 71.4804 50.0747 72.1161 50.4802 72.6193 50.9905 73.1225 51.4876 73.4868 52.0436 73.7121 52.6586L73.9307 49.7346 79.7717 49.7346 79.7717 70.9871C79.7717 72.8976 79.4011 74.513 78.6595 75.8344 77.9173 77.1557 76.8182 78.1631 75.3611 78.8565 73.9176 79.55 72.1161 79.9164 69.9572 79.9557ZM69.8775 65.5319C70.5532 65.5319 71.1423 65.4601 71.646 65.316 72.1623 65.1593 72.5863 64.9564 72.9175 64.7075 73.2483 64.4459 73.4868 64.1712 73.6325 63.8835L73.6325 56.4654C73.5004 56.0602 73.275 55.7001 72.9574 55.3862 72.6392 55.0722 72.2288 54.8238 71.7251 54.6403 71.2351 54.4443 70.6658 54.3463 70.0164 54.3463 68.6919 54.3463 67.6589 54.8238 66.9172 55.7788 66.1756 56.7337 65.8045 58.1924 65.8045 60.1548 65.8045 61.8556 66.1425 63.177 66.8182 64.1188 67.4932 65.0607 68.5132 65.5319 69.8775 65.5319Z" transform="matrix(1 0 0 1.00164 354 380)"/><path d="M47.1144 71.4384C44.9157 71.4384 43.0415 71.0071 41.4918 70.1433 39.9421 69.28 38.7566 68.0305 37.9354 66.3952 37.1142 64.7468 36.7036 62.7582 36.7036 60.4294 36.7036 58.0226 37.1407 55.9947 38.0149 54.3463 38.8891 52.6848 40.1209 51.4287 41.7103 50.5783 43.2998 49.728 45.1607 49.3028 47.2932 49.3028 49.3595 49.3028 51.0946 49.6887 52.4987 50.4605 53.916 51.2324 54.9889 52.3707 55.7174 53.8751 56.446 55.3799 56.8097 57.2306 56.8097 59.4289 56.8097 59.7035 56.7966 60.0243 56.7704 60.3901 56.7568 60.7434 56.7374 61.1491 56.7107 61.6072L42.7633 61.6072C42.909 63.3861 43.3462 64.688 44.0746 65.512 44.8031 66.3234 45.823 66.729 47.1343 66.729 48.2204 66.729 49.0416 66.4932 49.5979 66.0225 50.1675 65.5513 50.5052 64.9302 50.6112 64.1581L56.5319 64.1581C56.4124 65.6367 55.9559 66.9251 55.1608 68.0242 54.3793 69.1102 53.3064 69.9535 51.9423 70.5558 50.578 71.1444 48.9688 71.4384 47.1144 71.4384ZM45.2866 58.173 50.8695 58.173C50.8165 56.7993 50.4787 55.7719 49.8562 55.0916 49.2469 54.4113 48.3065 54.0716 47.0349 54.0716 45.5383 54.0716 44.4455 54.601 43.7567 55.6608 43.068 56.7075 42.717 58.1992 42.7037 60.1354 42.8097 59.3895 43.068 58.879 43.4786 58.6044 43.8892 58.3166 44.4919 58.173 45.2866 58.173Z" transform="matrix(1 0 0 1.00164 354 380)"/><path d="M2.6505 71.1444 2.6505 42.611 13.1408 42.611 16.7965 58.4277 17.8098 63.3143 17.8892 63.3143 18.9224 58.4277 22.5185 42.611 33.0485 42.611 33.0485 71.1444 26.8696 71.1444 26.8696 56.7206 27.4855 47.4974 27.2868 47.4974 24.6046 56.6619 20.4324 71.1444 15.3263 71.1444 11.0944 56.6619 8.4122 47.4974 8.21356 47.4974 8.82947 56.7206 8.82947 71.1444 2.6505 71.1444Z" transform="matrix(1 0 0 1.00164 354 380)"/><path d="M185.382 40.2797C185.382 42.0273 183.947 43.4441 182.178 43.4441 180.408 43.4441 178.974 42.0273 178.974 40.2797 178.974 38.532 180.408 37.1153 182.178 37.1153 183.947 37.1153 185.382 38.532 185.382 40.2797Z" transform="matrix(1 0 0 1.00164 354 380)"/><path d="M218.987 42.2923C218.987 44.0399 217.552 45.4567 215.783 45.4567 214.013 45.4567 212.579 44.0399 212.579 42.2923 212.579 40.5446 214.013 39.1279 215.783 39.1279 217.552 39.1279 218.987 40.5446 218.987 42.2923Z" transform="matrix(1 0 0 1.00164 354 380)"/><path d="M172.176 41.2817C172.176 42.8925 170.853 44.1983 169.223 44.1983 167.592 44.1983 166.27 42.8925 166.27 41.2817 166.27 39.6709 167.592 38.3651 169.223 38.3651 170.853 38.3651 172.176 39.6709 172.176 41.2817Z" transform="matrix(1 0 0 1.00164 354 380)"/><path d="M223.402 53.874C223.402 55.4039 222.146 56.6441 220.597 56.6441 219.048 56.6441 217.793 55.4039 217.793 53.874 217.793 52.3442 219.048 51.104 220.597 51.104 222.146 51.104 223.402 52.3442 223.402 53.874Z" transform="matrix(1 0 0 1.00164 354 380)"/><path d="M197.034 39.476C197.034 40.6049 196.119 41.5201 194.99 41.5201 193.861 41.5201 192.946 40.6049 192.946 39.476 192.946 38.347 193.861 37.4318 194.99 37.4318 196.119 37.4318 197.034 38.347 197.034 39.476Z" transform="matrix(1 0 0 1.00164 354 380)"/><path d="M209.427 34.5064C209.427 35.6354 208.512 36.5505 207.383 36.5505 206.254 36.5505 205.339 35.6354 205.339 34.5064 205.339 33.3775 206.254 32.4623 207.383 32.4623 208.512 32.4623 209.427 33.3775 209.427 34.5064Z" transform="matrix(1 0 0 1.00164 354 380)"/><path d="M201.894 29.9138C201.894 30.8449 201.14 31.5997 200.209 31.5997 199.278 31.5997 198.523 30.8449 198.523 29.9138 198.523 28.9827 199.278 28.228 200.209 28.228 201.14 28.228 201.894 28.9827 201.894 29.9138Z" transform="matrix(1 0 0 1.00164 354 380)"/><path d="M225.35 31.1753C225.35 32.1063 224.595 32.8611 223.664 32.8611 222.733 32.8611 221.978 32.1063 221.978 31.1753 221.978 30.2442 222.733 29.4894 223.664 29.4894 224.595 29.4894 225.35 30.2442 225.35 31.1753Z" transform="matrix(1 0 0 1.00164 354 380)"/><path d="M158.66 41.0587C158.66 41.9897 157.905 42.7445 156.974 42.7445 156.043 42.7445 155.288 41.9897 155.288 41.0587 155.288 40.1276 156.043 39.3728 156.974 39.3728 157.905 39.3728 158.66 40.1276 158.66 41.0587Z" transform="matrix(1 0 0 1.00164 354 380)"/><path d="M161.83 26.7914C161.83 27.7224 161.076 28.4772 160.145 28.4772 159.214 28.4772 158.459 27.7224 158.459 26.7914 158.459 25.8603 159.214 25.1055 160.145 25.1055 161.076 25.1055 161.83 25.8603 161.83 26.7914Z" transform="matrix(1 0 0 1.00164 354 380)"/><path d="M209.292 21.3149C209.292 22.246 208.537 23.0008 207.606 23.0008 206.675 23.0008 205.92 22.246 205.92 21.3149 205.92 20.3838 206.675 19.6291 207.606 19.6291 208.537 19.6291 209.292 20.3838 209.292 21.3149Z" transform="matrix(1 0 0 1.00164 354 380)"/><path d="M181.526 22.564C181.526 23.4951 180.771 24.2498 179.84 24.2498 178.909 24.2498 178.154 23.4951 178.154 22.564 178.154 21.6329 178.909 20.8781 179.84 20.8781 180.771 20.8781 181.526 21.6329 181.526 22.564Z" transform="matrix(1 0 0 1.00164 354 380)"/><path d="M182.791 29.9501C182.791 30.8812 182.036 31.636 181.105 31.636 180.174 31.636 179.42 30.8812 179.42 29.9501 179.42 29.0191 180.174 28.2643 181.105 28.2643 182.036 28.2643 182.791 29.0191 182.791 29.9501Z" transform="matrix(1 0 0 1.00164 354 380)"/><path d="M176.079 33.2927C176.079 34.4216 175.164 35.3368 174.035 35.3368 172.906 35.3368 171.991 34.4216 171.991 33.2927 171.991 32.1637 172.906 31.2485 174.035 31.2485 175.164 31.2485 176.079 32.1637 176.079 33.2927Z" transform="matrix(1 0 0 1.00164 354 380)"/></g></svg>